<svg width="512" height="512" viewBox="0 0 512 512" fill="none" xmlns="http://www.w3.org/2000/svg">
  <defs>
    <linearGradient id="rt-fav-primary" x1="0%" y1="0%" x2="100%" y2="100%">
      <stop offset="0%" stop-color="#38bdf8" />
      <stop offset="55%" stop-color="#6366f1" />
      <stop offset="100%" stop-color="#a855f7" />
    </linearGradient>
    <linearGradient id="rt-fav-branch" x1="0%" y1="100%" x2="100%" y2="0%">
      <stop offset="0%" stop-color="#34d399" />
      <stop offset="100%" stop-color="#38bdf8" />
    </linearGradient>
  </defs>

  <!-- Background Frame -->
  <rect width="512" height="512" rx="112" fill="#0f172a" />
  <rect width="504" height="504" x="4" y="4" rx="108" stroke="#334155" stroke-width="4" opacity="0.5" />

  <!-- Icon Graphic centered -->
  <g transform="translate(0, 10)">
    <path d="M 180 370 L 180 165 C 180 140 215 130 256 148 L 256 385 C 215 368 180 370 180 370 Z" fill="url(#rt-fav-primary)" opacity="0.95" />
    <path d="M 332 370 L 332 165 C 332 140 297 130 256 148 L 256 385 C 297 368 332 370 332 370 Z" fill="url(#rt-fav-primary)" opacity="0.75" />
    <path d="M 180 350 C 180 260 210 210 295 200" stroke="url(#rt-fav-branch)" stroke-width="26" stroke-linecap="round" />
    <line x1="180" y1="160" x2="180" y2="360" stroke="#ffffff" stroke-width="24" stroke-linecap="round" />
    <circle cx="180" cy="355" r="22" fill="#0f172a" stroke="#ffffff" stroke-width="12" />
    <circle cx="180" cy="165" r="22" fill="#0f172a" stroke="#ffffff" stroke-width="12" />
    <circle cx="310" cy="200" r="26" fill="url(#rt-fav-branch)" stroke="#0f172a" stroke-width="8" />
  </g>
</svg>
